<svg xmlns="http://www.w3.org/2000/svg" viewBox="0 0 316 531"><defs><style>.cls-1{fill:#fff;}</style></defs><g id="Layer_2" data-name="Layer 2"><g id="Layer_1-2" data-name="Layer 1"><path class="cls-1" d="M316,42V250H211a51.75,51.75,0,0,1-27.71-8,52.24,52.24,0,0,1-27.87,8H0V61.66A61.66,61.66,0,0,1,61.66,0H208V52H87.71A35.71,35.71,0,0,0,52,87.71V198h82.43A21.57,21.57,0,0,0,156,176.43V70h52V197.42c0,.19,0,.39,0,.58h56V42Z"/><path class="cls-1" d="M316,42V250H211a51.75,51.75,0,0,1-27.71-8,52.24,52.24,0,0,1-27.87,8H0V61.66A61.66,61.66,0,0,1,61.66,0H208V52H87.71A35.71,35.71,0,0,0,52,87.71V198h82.43A21.57,21.57,0,0,0,156,176.43V70h52V197.42c0,.19,0,.39,0,.58h56V42Z"/><path class="cls-1" d="M316,281V469.34A61.66,61.66,0,0,1,254.34,531H108V479H228.29A35.71,35.71,0,0,0,264,443.29V333H181.57A21.57,21.57,0,0,0,160,354.57V377h75v38H160v46H108V333.58c0-.19,0-.39,0-.58H52V489H0V281H105a51.75,51.75,0,0,1,27.71,8,52.24,52.24,0,0,1,27.87-8Z"/></g></g></svg>